<?xml version="1.0" encoding="utf-8"?>
<!-- Generator: Adobe Illustrator 28.0.0, SVG Export Plug-In . SVG Version: 6.00 Build 0)  -->
<svg version="1.1" id="Layer_1" xmlns="http://www.w3.org/2000/svg" xmlns:xlink="http://www.w3.org/1999/xlink" x="0px" y="0px"
	 viewBox="0 0 1080 1080" style="enable-background:new 0 0 1080 1080;" xml:space="preserve">
<style type="text/css">
	.st0{fill:#E4251B;}
	.st1{fill:#FFFFFF;}
</style>
<path class="st0" d="M0,556.2h1080V1080H0V556.2z"/>
<path class="st1" d="M842.2,630.1c-31.7,0-53.4,21.7-53.4,50.9s21.8,50.9,53.4,50.9c31.7,0,53.4-21.7,53.4-50.9
	C895.7,651.8,873.9,630.1,842.2,630.1z M842.2,721.2c-19.9,0-34.5-17.8-34.5-40.2s14.7-40.2,34.5-40.2c19.9,0,34.5,17.8,34.5,40.2
	C876.8,703.4,862.1,721.2,842.2,721.2z"/>
<path class="st1" d="M339.2,681.2c0-12.9,0.6-30.2,0.9-41.9c0.1-4.9-2.4-7.5-7.3-7.5h-13.4c2.9,8.9,2.7,24.9,2.7,49.4
	c0,12.9-0.9,30.2-1.2,41.9c-0.1,4.9,2.4,7.5,7.3,7.5h13.7C339,721.7,339.2,705.6,339.2,681.2z"/>
<path class="st1" d="M754.5,681.9h-13.4c2.6,8,2.7,17,2.7,36.5c-5.4,1.9-11.7,2.6-17.9,2.6c-56.9,0-56-80.3-6.4-80.3
	c16,0,27.2,8,29.5,17.1c2.2-3.1,7.8-9.3,7.8-13.6c0-7.6-13.8-13.9-35.5-13.9c-71.3,0-78,101.8,0.1,101.8c10.9,0,31.1-1.9,39.7-6.7
	c0-12.9,0.6-24.3,0.9-35.9C762,684.5,759.4,681.9,754.5,681.9L754.5,681.9z"/>
<path class="st1" d="M252.3,689.6c17.4-3.7,27.6-15.3,27.6-31.6c0-14.7-12.1-26.3-36-26.3h-37.1c2.9,8.9,2.7,24.9,2.7,49.4
	c0,12.9-0.9,30.2-1.2,41.9c-0.1,4.9,2.4,7.5,7.3,7.5h13.7c-2.5-7.7-2.7-20.6-2.7-39.6h8.2c26.3,41.8,44.9,54.9,67.8,49.2
	C282.9,731.2,268.3,711.3,252.3,689.6L252.3,689.6z M226.6,682c0-12,0.6-28.8,0.9-40.4c5.1-0.4,9.3-0.6,11.7-0.6
	c14.6,0,22.9,7.5,22.9,19.3c0,14.9-10.6,21.7-23.8,21.7H226.6z"/>
<path class="st1" d="M546.6,631.8H537c-0.2,6.9-5.2,15.8-10.9,25.3c-3.6,6.1-8,12.7-12.6,19.9c-5.9-9.9-15.1-27.6-21.2-39.8
	c-1.7-3.3-5.1-5.4-8.8-5.4h-17.8c16.1,22.2,29.3,45.2,36.8,58.4c-0.2,11-0.8,24.2-1.1,33.5c-0.1,4.5,2.2,6.9,6.7,6.9h14.3
	c-2.5-7.6-2.5-22.4-2.5-42.7c8.6-14.9,16.8-27.9,30.7-48.4C553.5,635.4,552.2,631.8,546.6,631.8L546.6,631.8z"/>
<path class="st1" d="M591.5,654.8c0-8.9,7.8-14,16.7-14c10.4,0,16.9,5.1,21.8,12.2c2-2.7,5.3-6.9,5.3-11.2c0-6.7-9.3-11.4-25.8-11.4
	c-17.6,0-34.2,9.4-34.2,28c0,33.1,47.1,24.1,47.1,45.7c0,9.2-6.8,16.9-18.2,16.9c-13.7,0-21.3-7-27-15.6c-1.8,3.7-2.8,7.5-2.8,11.6
	c0,10.1,11.2,14.9,28.5,14.9c20.3,0,35.5-11.2,35.5-32.6C638.4,668.3,591.5,675.6,591.5,654.8L591.5,654.8z"/>
<path class="st1" d="M437.4,631.8h-53.1c2.9,8.9,2.7,24.9,2.7,49.4c0,12.9-0.9,30.2-1.2,41.9c-0.1,4.9,2.4,7.5,7.3,7.5h13.7
	c-2.8-8.6-2.7-23.8-2.7-46.7h7.7c14.3,0,21.7,1.7,25,4.6c2.7-7.4,2.8-14.1-4.4-14.1h-28.3c0.1-10.7,0.6-22.9,0.8-32.4h10.6
	c15.2,0,23,2.1,26.5,5.1C444.9,639.2,445,631.8,437.4,631.8z"/>
<path class="st1" d="M984,714.4c-3.7,3-10.4,6-26.4,6h-12.8c-0.9-9.3-0.8-22.2-0.8-39.3c0-12.9,0.6-30.2,0.9-41.9
	c0.1-4.9-2.4-7.5-7.3-7.5h-13.4c2.9,8.9,2.7,24.9,2.7,49.4c0,12.9-0.9,30.2-1.2,41.9c-0.1,4.9,2.4,7.5,7.3,7.5h41.9
	C981.4,730.6,986.3,725.4,984,714.4L984,714.4z"/>
<path class="st1" d="M141.9,631.8h-34.8c2.9,8.9,2.7,24.9,2.7,49.4c0,12.9-0.9,30.2-1.2,41.9c-0.1,4.9,2.4,7.5,7.3,7.5h13.7
	c-2.4-7.5-2.7-20-2.7-38.3h10.3c25.2,0,40.6-13.2,40.6-33.9C177.9,643.6,165.8,631.8,141.9,631.8L141.9,631.8z M136.4,683.3H127
	c0-0.7,0-1.4,0-2.1c0-12.1,0.6-28.2,0.9-39.8c4-0.3,7.3-0.5,9.4-0.5c14.6,0,22.9,7.8,22.9,19.6C160.2,676.3,149.6,683.3,136.4,683.3
	L136.4,683.3z"/>
<path class="st1" d="M655.7,800.9h-64.6c5.7,12.5,4.5,63.1,4.5,87.3c0,23.2-1.3,54.7-1.7,75.6c-0.2,9,3.3,12.5,12.2,12.5h44.1
	c65.7,0,99.3-38.4,99.3-92.7C749.5,828.6,711.3,800.9,655.7,800.9L655.7,800.9z M646.8,961.2h-21.7c-1.3-15.2-1.8-39.9-1.8-73
	c0-22.5,0.9-52.4,1.3-73.1c6.1-0.5,12.4-0.7,18.5-0.7c32.4,0,75.4,14.8,75.4,73.8S683.2,961.2,646.8,961.2z"/>
<path class="st1" d="M320.1,888.2c-10.6-24.6-21-48.6-27.2-62.5c-1.6-3.7-5.3-6.1-9.3-6.1h-5.3c-5.5,18.5-15.9,39.7-29.8,68.6
	c-10,20.8-19.7,41-28,56.6c-4.1,7.6-1.6,12,5.6,12h11.2c-1.5-4.9,4.4-21.3,12.9-41.4h52.9c4.1,10.6,8,21.5,12,33.1
	c1.7,5,6.3,8.3,11.6,8.3h25.6C345.4,950.6,335.8,924.7,320.1,888.2L320.1,888.2z M254.9,904.6c7.5-16.8,16.2-35.1,23.7-50.7
	c7.3,18.2,13.9,34.4,20.3,50.7H254.9z"/>
<path class="st1" d="M371.2,856.5h5.5c16.3,0,24.6,2,28.3,5.2c3.1-8.4,3.2-15.6-4.9-15.6h-28.8c0.1-11.6,0.3-24.3,0.5-34.2h9.3
	c17.2,0,26.1,2.4,30,5.8c3.3-8.9,3.4-16.8-5.2-16.8h-58c3.3,10.1,3,28.3,3,56.1c0,14.6-1.1,34.3-1.4,47.6c-0.1,5.6,2.8,8.5,8.3,8.5
	h45.8c7.3,0,10.3-2.9,10.3-10.9v-6.9c-4.2,3.3-11.8,6.8-29.9,6.8h-12.3C371.2,891.3,371.2,876.5,371.2,856.5L371.2,856.5z"/>
<path class="st1" d="M846.9,810.4c3.5-5.1,1.8-9.6-5.1-9.6h-11.9c-0.3,8.5-6.4,19.5-13.5,31.3c-4,6.6-8.6,13.7-13.6,21.4
	c-7.3-12.6-17.4-32.2-24.4-46c-2.1-4.1-6.3-6.7-10.9-6.7h-22.1c18.4,25.5,33.8,51.7,43.4,68.4c-0.1,14.3-1.1,32.8-1.4,45.4
	c-0.1,5.6,2.8,8.5,8.3,8.5h17.8c-3.2-9.8-3-29.2-3-55.9C820.6,850.1,830.6,834.4,846.9,810.4L846.9,810.4z"/>
<path class="st1" d="M941.4,800.9h-53.6c4.6,10.1,3.6,50.8,3.6,70.3c0,18.6-1.1,44-1.4,60.8c-0.1,7.3,2.6,10,9.8,10h37.1
	c52.9,0,79.9-30.9,79.9-74.6C1016.9,823.2,986.1,800.9,941.4,800.9L941.4,800.9z M934.2,929.9H914c-0.1-16.7-0.3-40.9-0.3-58.7
	c0-18,0.2-42,0.3-58.6c5.7-0.5,11.5-0.8,17.2-0.8c26.1,0,60.7,11.9,60.7,59.4S963.5,929.9,934.2,929.9L934.2,929.9z"/>
<path class="st1" d="M895.2,863.4h-53.6c4.6,10.1,3.6,50.8,3.6,70.3c0,18.6-1.1,44-1.4,60.8c-0.1,7.3,2.6,10,9.8,10h37.1
	c52.9,0,79.9-30.9,79.9-74.6C970.6,885.7,939.8,863.4,895.2,863.4L895.2,863.4z M888,992.4h-20.2c-0.1-16.7-0.3-40.9-0.3-58.7
	c0-18,0.2-42,0.3-58.6c5.7-0.5,11.5-0.8,17.2-0.8c26.1,0,60.7,11.9,60.7,59.4S917.3,992.4,888,992.4L888,992.4z"/>
<path class="st1" d="M244.4,974c-13,13.2-32.7,20.4-53.4,20.4c-61.3,0-90.6-50.3-90.6-99.3c0-46.5,26.5-91.9,77.1-91.9
	c33.6,0,57,19.9,61.9,41.6c4.7-7.3,12.2-18.3,12.2-28c0-17.1-27.5-31.2-70.9-31.2C107.3,785.4,68,845.4,68,904
	c0,56,36.1,110.7,112.8,110.7c21.8,0,45-5.9,62.2-16.8c2.7-1.7,4-4.8,3.6-7.9L244.4,974z"/>
<path class="st1" d="M512.8,907c29.8-7.8,47.1-28.7,47.1-57.5c0-27.3-22.5-48.6-66.6-48.6h-60c5.8,14.2,4.5,63.1,4.5,87.4
	c0,23.2-1.3,54.8-1.7,75.6c-0.2,9,3.3,12.5,12.2,12.5h21.3c-2.6-7.5-3.7-30.2-4-66h19.6c53.7,87.6,90.1,113,131.8,102.5
	C576.6,994.5,546,952.1,512.8,907L512.8,907z M465.5,897.8c0-3.1,0-6.3,0-9.6c0-22.7,0.9-53,1.3-73.7c7.3-0.5,13.3-0.8,17.1-0.8
	c29.8,0,47,15.4,47,39.6c0,30.5-21.7,44.4-48.7,44.4L465.5,897.8L465.5,897.8z"/>
<path class="st0" d="M0,0h1080v523.8H0V0z"/>
<g>
	<path class="st1" d="M473.4,349.4h-9.5c1.3,10-9.3,33.7-27.3,74.3c-9.7-24.2-17.8-43.5-26-67.3c-1.4-4.2-5.3-7-9.7-7h-17.4
		c10,19.2,14.1,28.8,23.2,49.4c7.3,16.7,13.1,31.1,18.2,43.3c1.9,4.6,4,6.2,9.2,6.2h4c7.4-19.4,11.7-28.6,21.2-49.4
		c6.9-15,13.5-29.6,19.3-40.9C481,353.2,480.5,349.4,473.4,349.4L473.4,349.4z"/>
	<path class="st1" d="M987.9,357.1c2.8-4.2,1.5-7.7-4.1-7.7h-9.6c-0.2,6.9-5.2,15.8-10.9,25.3c-3.7,6.1-8,12.7-12.7,20
		c-5.9-9.9-15.1-27.6-21.3-39.8c-1.7-3.3-5.1-5.4-8.8-5.4h-17.8c16.1,22.3,29.4,45.3,36.8,58.4c-0.2,11-0.8,24.2-1.1,33.5
		c-0.1,4.5,2.2,6.9,6.7,6.9h14.3c-2.5-7.6-2.5-22.4-2.5-42.7C965.8,390.6,974,377.6,987.9,357.1L987.9,357.1z"/>
	<path class="st1" d="M702.5,372.4c0-8.9,7.8-14,16.7-14c10.4,0,16.9,5.1,21.8,12.2c2-2.7,5.3-6.9,5.3-11.2
		c0-6.7-9.3-11.5-25.9-11.5c-17.6,0-34.3,9.4-34.3,28c0,33.1,47.1,24.1,47.1,45.7c0,9.3-6.8,17-18.2,17c-13.7,0-21.4-7-27-15.6
		c-1.8,3.8-2.8,7.5-2.8,11.6c0,10.1,11.2,14.9,28.5,14.9c20.3,0,35.6-11.2,35.6-32.6C749.4,385.9,702.5,393.2,702.5,372.4
		L702.5,372.4z"/>
	<path class="st1" d="M632.1,407.2c17.4-3.7,27.6-15.3,27.6-31.6c0-14.7-12.2-26.3-36-26.3h-37.2c2.9,8.9,2.7,25,2.7,49.4
		c0,12.9-0.9,30.2-1.2,41.9c-0.1,4.9,2.4,7.5,7.3,7.5H609c-2.5-7.7-2.7-20.6-2.7-39.7h8.2c26.3,41.9,45,55,67.8,49.2
		C662.7,448.8,648,429,632.1,407.2L632.1,407.2z M606.4,399.6c0-12.1,0.6-28.9,0.9-40.5c5.1-0.4,9.3-0.6,11.7-0.6
		c14.6,0,23,7.5,23,19.4c0,14.9-10.6,21.7-23.8,21.7H606.4z"/>
	<path class="st1" d="M362.4,398.8c0-12.9,0.6-30.2,0.9-41.9c0.1-4.9-2.5-7.5-7.3-7.5h-13.4c2.9,8.9,2.7,25,2.7,49.4
		c0,12.9-0.9,30.2-1.2,41.9c-0.1,4.9,2.4,7.5,7.3,7.5h13.7C362.2,439.3,362.4,423.2,362.4,398.8z"/>
	<path class="st1" d="M792.2,398.8c0-12.9,0.6-30.2,0.9-41.9c0.1-4.9-2.5-7.5-7.3-7.5h-13.4c2.9,8.9,2.7,25,2.7,49.4
		c0,12.9-0.9,30.2-1.2,41.9c-0.1,4.9,2.4,7.5,7.3,7.5h13.7C791.9,439.3,792.2,423.2,792.2,398.8z"/>
	<path class="st1" d="M187.8,349.4h-8c2.9,8.9,2.4,28.5,2.4,52.3c0,20.8-7.8,35.9-30.4,35.9c-21.2,0-26.6-15.4-26.6-35.9
		c0-12.9,0.3-33.1,0.6-44.8c0.1-4.9-2.4-7.5-7.3-7.5h-12.6c1.9,9.3,1.9,25,1.9,49.4c0,32.7,9.6,51,41.8,51c30.3,0,45-16.4,45-51
		c0-12.9,0.3-30.2,0.6-41.9C195.2,352,192.7,349.4,187.8,349.4L187.8,349.4z"/>
	<path class="st1" d="M858.5,349.4h-42.2c-7.6,0-10.7,5.7-7.8,13.6c3-1.3,17.2-2.6,32.2-2.6c0.6,9.2,0.7,21.2,0.7,38.5
		c0,12.9-0.9,30.2-1.2,41.9c-0.1,4.9,2.4,7.5,7.3,7.5h13.7c-2.9-8.9-2.7-25-2.7-49.4c0-11.8,0.2-27.4,0.5-38.9
		c9.2,0.4,18.6,1,24.2,1c7.6,0,10.7-5.5,7.8-13.4C888,348.9,873.6,349.4,858.5,349.4z"/>
	<path class="st1" d="M304.5,349.4h-8.4c2.9,8.9,2.7,25,2.7,49.4c0,7.9,0,13-0.1,18.5l-60-64.2c-2.2-2.3-5.3-3.6-8.5-3.6h-8.3
		c2.9,8.9,2.7,25,2.7,49.4c0,12.9-0.9,30.2-1.2,41.9c-0.1,4.9,2.5,7.5,7.3,7.5h8.4c-2.9-8.9-2.7-25-2.7-49.4c0-8.6,0-13.8,0.1-19.9
		l61,65.6c2.2,2.3,5.3,3.7,8.5,3.7h5.7c-1.1-8.7-1.2-25-1.2-49.4c0-12.9,0.9-30.2,1.2-41.9C311.9,352,309.4,349.4,304.5,349.4z"/>
	<path class="st1" d="M533.3,438.1H520c-0.9-9.3-0.8-22.8-0.8-39.8h7.7c14.3,0,21.7,1.7,25,4.6c2.7-7.4,2.8-14.2-4.4-14.2h-28.2
		c0.2-9.9,0.5-20.7,0.8-29.2h11c15.2,0,23,2.1,26.5,5.1c2.9-7.8,3-15.2-4.6-15.2h-53.6c2.9,8.9,2.7,25,2.7,49.4
		c0,12.9-0.9,30.2-1.2,41.9c-0.1,4.9,2.4,7.5,7.3,7.5h42.6c6.5,0,11.4-5.2,9.1-16.1C556,435,549.3,438.1,533.3,438.1L533.3,438.1z"
		/>
	<path class="st1" d="M452.5,192.7c29.8-7.8,47.1-28.7,47.1-57.5c0-27.3-22.5-48.6-66.6-48.6h-60c5.8,14.2,4.5,63.1,4.5,87.4
		c0,23.2-1.3,54.8-1.7,75.6c-0.2,9,3.3,12.5,12.2,12.5h21.3c-2.6-7.5-3.7-30.2-4-66h19.6c53.7,87.6,90.1,113,131.8,102.5
		C516.3,280.2,485.8,237.8,452.5,192.7L452.5,192.7z M421.8,183.5h-16.6c0-3.1,0-6.3,0-9.6c0-22.7,0.9-53,1.3-73.7
		c7.3-0.5,13.3-0.8,17.1-0.8c29.8,0,47,15.4,47,39.6C470.5,169.6,448.8,183.5,421.8,183.5z"/>
	<path class="st1" d="M747.6,174c0-17.9,0.9-41.9,1.3-58.2c0.2-6.8-3.4-10.5-10.2-10.5h-21.3c4,12.4,3.7,34.7,3.7,68.6
		c0,17.9-1.3,41.9-1.7,58.2c-0.2,6.8,3.4,10.5,10.2,10.5h21.7C747.3,230.2,747.6,207.9,747.6,174z"/>
	<path class="st1" d="M599,86.6h-66.7c5.7,12.5,4.5,63.1,4.5,87.4c0,23.2-1.3,54.8-1.7,75.6c-0.2,9,3.3,12.5,12.2,12.5h46.1
		c65.8,0,99.4-38.4,99.4-92.8C692.9,114.3,654.6,86.6,599,86.6z M590.1,247h-23.7c-1.3-15.2-1.8-39.9-1.8-73c0-22.4,0.9-52.3,1.3-73
		c6.8-0.6,13.7-0.9,20.5-0.9c32.5,0,75.4,14.8,75.4,73.9C661.8,233,626.6,247,590.1,247z"/>
	<path class="st1" d="M875.5,86.6h-96.4c5.7,12.5,4.5,63.1,4.5,87.4c0,23.2-1.3,54.8-1.7,75.6c-0.2,9,3.3,12.5,12.2,12.5h21.3
		c-3-8.8-4.1-39-4.1-87h19.1c21.7,0,32.8,2.3,37.8,6.7c4.1-11.2,4.3-20.5-6.6-20.5h-50.2c0.2-20.1,0.9-43.1,1.2-60.1h29.9
		c22.9,0,34.7,2.9,39.9,7.5C886.8,96.8,886.9,86.6,875.5,86.6z"/>
	<path class="st1" d="M972.6,91.1c24.2,0,36.7,3.1,42.3,7.9c4.6-12.5,4.8-23.4-7.4-23.4H900.6c5.6,12.7,5.4,51,5.4,98.4
		c0,24.5-1.7,76.6-2.2,103.8c-0.2,9,3.3,12.4,12.2,12.4h23.3c-3.7-5.2-4.9-51.7-5-108.3h27.1c22.9,0,34.8,2.5,40,7
		c4.3-11.8,4.5-21.7-7-21.7h-60.1c0.1-22.9,0.9-54.9,1.3-76.2h37L972.6,91.1z"/>
	<path class="st1" d="M325.6,174c-10.6-24.6-21.1-48.6-27.2-62.6c-1.6-3.7-5.3-6.1-9.3-6.1h-5.4c-5.5,18.5-15.9,39.8-29.8,68.6
		c-10,20.8-19.7,41-28,56.7c-4.1,7.6-1.6,12,5.6,12h11.2c-1.5-4.9,4.4-21.4,13-41.4h53c4.1,10.6,8,21.5,12,33.1
		c1.7,5,6.3,8.3,11.6,8.3h25.6C350.9,236.4,341.3,210.4,325.6,174L325.6,174z M260.3,190.3c7.5-16.9,16.2-35.1,23.7-50.7
		c7.3,18.2,14,34.4,20.3,50.7H260.3z"/>
	<path class="st1" d="M244.4,259.7c-13,13.2-32.7,20.4-53.4,20.4c-61.3,0-90.6-50.3-90.6-99.3c0-46.5,26.5-91.9,77.1-91.9
		c33.6,0,57,19.9,61.9,41.6c4.7-7.3,12.2-18.3,12.2-28c0-17.1-27.5-31.2-70.9-31.2c-73.4,0-112.7,60-112.7,118.6
		c0,56,36.1,110.7,112.8,110.7c21.8,0,45-5.9,62.2-16.8c2.7-1.7,4-4.8,3.6-7.9L244.4,259.7z"/>
	<path class="st1" d="M0,523.8h1080v32.4H0V523.8z"/>
</g>
</svg>
